# xmcd
# Copyright (C) 1995-1998 Ti Kan
#
# Track frame offsets:
#       150
#       19530
#       41746
#       58278
#       79724
#       96899
#       127557
#
# Disc length: 2314 seconds
#
# Revision: 0
# Processed by: cddbd v1.5.2PL0 Copyright (c) Steve Scherf et al.
# Submitted via: CD-Transfer v1.0
#
DISCID=4d090807
DTITLE=Rahimovski Aki - 
DYEAR=07
DGENRE=
TTITLE0=Miladi
TTITLE1=Bijela Pjesma
TTITLE2=Boje Duge
TTITLE3=Vilenjak
TTITLE4=Pesem Pjesma
TTITLE5=Zraka Sunca
TTITLE6=
EXTD=
EXTT0=
EXTT1=
EXTT2=
EXTT3=
EXTT4=
EXTT5=
EXTT6=
PLAYORDER=
